<?xml version="1.0" encoding="UTF-8" standalone="no"?>
<!DOCTYPE svg PUBLIC "-//W3C//DTD SVG 1.1//EN"
 "http://www.w3.org/Graphics/SVG/1.1/DTD/svg11.dtd">
<!-- Generated by graphviz version 2.40.1 (20161225.0304)
 -->
<!-- Title: snakemake_dag Pages: 1 -->
<svg width="491pt" height="486pt"
 viewBox="0.00 0.00 490.50 486.00" xmlns="http://www.w3.org/2000/svg" xmlns:xlink="http://www.w3.org/1999/xlink">
<g id="graph0" class="graph" transform="scale(1 1) rotate(0) translate(4 482)">
<title>snakemake_dag</title>
<polygon fill="#ffffff" stroke="transparent" points="-4,4 -4,-482 486.5,-482 486.5,4 -4,4"/>
<!-- 0 -->
<g id="node1" class="node">
<title>0</title>
<path fill="none" stroke="#56d8a9" stroke-width="2" d="M296.5,-36C296.5,-36 266.5,-36 266.5,-36 260.5,-36 254.5,-30 254.5,-24 254.5,-24 254.5,-12 254.5,-12 254.5,-6 260.5,0 266.5,0 266.5,0 296.5,0 296.5,0 302.5,0 308.5,-6 308.5,-12 308.5,-12 308.5,-24 308.5,-24 308.5,-30 302.5,-36 296.5,-36"/>
<text text-anchor="middle" x="281.5" y="-15.5" font-family="sans" font-size="10.00" fill="#000000">all</text>
</g>
<!-- 1 -->
<g id="node2" class="node">
<title>1</title>
<path fill="none" stroke="#56d873" stroke-width="2" d="M320,-108C320,-108 243,-108 243,-108 237,-108 231,-102 231,-96 231,-96 231,-84 231,-84 231,-78 237,-72 243,-72 243,-72 320,-72 320,-72 326,-72 332,-78 332,-84 332,-84 332,-96 332,-96 332,-102 326,-108 320,-108"/>
<text text-anchor="middle" x="281.5" y="-87.5" font-family="sans" font-size="10.00" fill="#000000">Combine_Results</text>
</g>
<!-- 1&#45;&gt;0 -->
<g id="edge1" class="edge">
<title>1&#45;&gt;0</title>
<path fill="none" stroke="#c0c0c0" stroke-width="2" d="M281.5,-71.8314C281.5,-64.131 281.5,-54.9743 281.5,-46.4166"/>
<polygon fill="#c0c0c0" stroke="#c0c0c0" stroke-width="2" points="285.0001,-46.4132 281.5,-36.4133 278.0001,-46.4133 285.0001,-46.4132"/>
</g>
<!-- 2 -->
<g id="node3" class="node">
<title>2</title>
<path fill="none" stroke="#d88d56" stroke-width="2" d="M192,-180C192,-180 97,-180 97,-180 91,-180 85,-174 85,-168 85,-168 85,-156 85,-156 85,-150 91,-144 97,-144 97,-144 192,-144 192,-144 198,-144 204,-150 204,-156 204,-156 204,-168 204,-168 204,-174 198,-180 192,-180"/>
<text text-anchor="middle" x="144.5" y="-159.5" font-family="sans" font-size="10.00" fill="#000000">Run_Dreme_UpDown</text>
</g>
<!-- 2&#45;&gt;1 -->
<g id="edge2" class="edge">
<title>2&#45;&gt;1</title>
<path fill="none" stroke="#c0c0c0" stroke-width="2" d="M179.0709,-143.8314C196.9185,-134.4516 218.8774,-122.9112 237.88,-112.9244"/>
<polygon fill="#c0c0c0" stroke="#c0c0c0" stroke-width="2" points="239.7164,-115.9132 246.9402,-108.1628 236.4599,-109.7168 239.7164,-115.9132"/>
</g>
<!-- 3 -->
<g id="node4" class="node">
<title>3</title>
<path fill="none" stroke="#d88d56" stroke-width="2" d="M329,-180C329,-180 234,-180 234,-180 228,-180 222,-174 222,-168 222,-168 222,-156 222,-156 222,-150 228,-144 234,-144 234,-144 329,-144 329,-144 335,-144 341,-150 341,-156 341,-156 341,-168 341,-168 341,-174 335,-180 329,-180"/>
<text text-anchor="middle" x="281.5" y="-159.5" font-family="sans" font-size="10.00" fill="#000000">Run_Dreme_UpDown</text>
</g>
<!-- 3&#45;&gt;1 -->
<g id="edge3" class="edge">
<title>3&#45;&gt;1</title>
<path fill="none" stroke="#c0c0c0" stroke-width="2" d="M281.5,-143.8314C281.5,-136.131 281.5,-126.9743 281.5,-118.4166"/>
<polygon fill="#c0c0c0" stroke="#c0c0c0" stroke-width="2" points="285.0001,-118.4132 281.5,-108.4133 278.0001,-118.4133 285.0001,-118.4132"/>
</g>
<!-- 4 -->
<g id="node5" class="node">
<title>4</title>
<path fill="none" stroke="#afd856" stroke-width="2" d="M454,-180C454,-180 371,-180 371,-180 365,-180 359,-174 359,-168 359,-168 359,-156 359,-156 359,-150 365,-144 371,-144 371,-144 454,-144 454,-144 460,-144 466,-150 466,-156 466,-156 466,-168 466,-168 466,-174 460,-180 454,-180"/>
<text text-anchor="middle" x="412.5" y="-159.5" font-family="sans" font-size="10.00" fill="#000000">Run_Dreme_Intron</text>
</g>
<!-- 4&#45;&gt;1 -->
<g id="edge4" class="edge">
<title>4&#45;&gt;1</title>
<path fill="none" stroke="#c0c0c0" stroke-width="2" d="M379.4432,-143.8314C362.5323,-134.5368 341.7615,-123.1208 323.7059,-113.1971"/>
<polygon fill="#c0c0c0" stroke="#c0c0c0" stroke-width="2" points="324.9957,-109.9122 314.5463,-108.1628 321.624,-116.0468 324.9957,-109.9122"/>
</g>
<!-- 5 -->
<g id="node6" class="node">
<title>5</title>
<path fill="none" stroke="#5692d8" stroke-width="2" d="M141,-329C141,-329 12,-329 12,-329 6,-329 0,-323 0,-317 0,-317 0,-300 0,-300 0,-294 6,-288 12,-288 12,-288 141,-288 141,-288 147,-288 153,-294 153,-300 153,-300 153,-317 153,-317 153,-323 147,-329 141,-329"/>
<text text-anchor="middle" x="76.5" y="-317" font-family="sans" font-size="10.00" fill="#000000">Get_Positive_Seqs_UpDown</text>
<text text-anchor="middle" x="76.5" y="-306" font-family="sans" font-size="10.00" fill="#000000">method: upstream</text>
<text text-anchor="middle" x="76.5" y="-295" font-family="sans" font-size="10.00" fill="#000000">winsize: 100</text>
</g>
<!-- 5&#45;&gt;2 -->
<g id="edge5" class="edge">
<title>5&#45;&gt;2</title>
<path fill="none" stroke="#c0c0c0" stroke-width="2" d="M73.7859,-287.8594C72.1702,-268.3064 72.2553,-238.6468 83.5,-216 89.102,-204.7175 98.1893,-194.7495 107.6587,-186.5469"/>
<polygon fill="#c0c0c0" stroke="#c0c0c0" stroke-width="2" points="110.0701,-189.0977 115.6348,-180.0819 105.6623,-183.6597 110.0701,-189.0977"/>
</g>
<!-- 6 -->
<g id="node7" class="node">
<title>6</title>
<path fill="none" stroke="#56c9d8" stroke-width="2" d="M192.5,-252C192.5,-252 104.5,-252 104.5,-252 98.5,-252 92.5,-246 92.5,-240 92.5,-240 92.5,-228 92.5,-228 92.5,-222 98.5,-216 104.5,-216 104.5,-216 192.5,-216 192.5,-216 198.5,-216 204.5,-222 204.5,-228 204.5,-228 204.5,-240 204.5,-240 204.5,-246 198.5,-252 192.5,-252"/>
<text text-anchor="middle" x="148.5" y="-231.5" font-family="sans" font-size="10.00" fill="#000000">Get_Negative_Seqs</text>
</g>
<!-- 5&#45;&gt;6 -->
<g id="edge11" class="edge">
<title>5&#45;&gt;6</title>
<path fill="none" stroke="#c0c0c0" stroke-width="2" d="M96.556,-287.7476C105.008,-279.0021 114.9293,-268.7363 123.8239,-259.5329"/>
<polygon fill="#c0c0c0" stroke="#c0c0c0" stroke-width="2" points="126.5663,-261.7317 130.999,-252.1087 121.5328,-256.8671 126.5663,-261.7317"/>
</g>
<!-- 6&#45;&gt;2 -->
<g id="edge6" class="edge">
<title>6&#45;&gt;2</title>
<path fill="none" stroke="#c0c0c0" stroke-width="2" d="M147.4906,-215.8314C147.0628,-208.131 146.5541,-198.9743 146.0787,-190.4166"/>
<polygon fill="#c0c0c0" stroke="#c0c0c0" stroke-width="2" points="149.5724,-190.2037 145.523,-180.4133 142.5831,-190.592 149.5724,-190.2037"/>
</g>
<!-- 7 -->
<g id="node8" class="node">
<title>7</title>
<path fill="none" stroke="#5692d8" stroke-width="2" d="M312,-329C312,-329 183,-329 183,-329 177,-329 171,-323 171,-317 171,-317 171,-300 171,-300 171,-294 177,-288 183,-288 183,-288 312,-288 312,-288 318,-288 324,-294 324,-300 324,-300 324,-317 324,-317 324,-323 318,-329 312,-329"/>
<text text-anchor="middle" x="247.5" y="-317" font-family="sans" font-size="10.00" fill="#000000">Get_Positive_Seqs_UpDown</text>
<text text-anchor="middle" x="247.5" y="-306" font-family="sans" font-size="10.00" fill="#000000">method: downstream</text>
<text text-anchor="middle" x="247.5" y="-295" font-family="sans" font-size="10.00" fill="#000000">winsize: 100</text>
</g>
<!-- 7&#45;&gt;3 -->
<g id="edge7" class="edge">
<title>7&#45;&gt;3</title>
<path fill="none" stroke="#c0c0c0" stroke-width="2" d="M248.6398,-287.9998C250.0487,-269.0601 253.0972,-240.2697 259.5,-216 261.8386,-207.1355 265.2758,-197.7849 268.7417,-189.4015"/>
<polygon fill="#c0c0c0" stroke="#c0c0c0" stroke-width="2" points="272.0106,-190.6599 272.7594,-180.0915 265.5835,-187.8863 272.0106,-190.6599"/>
</g>
<!-- 8 -->
<g id="node9" class="node">
<title>8</title>
<path fill="none" stroke="#56c9d8" stroke-width="2" d="M368.5,-252C368.5,-252 280.5,-252 280.5,-252 274.5,-252 268.5,-246 268.5,-240 268.5,-240 268.5,-228 268.5,-228 268.5,-222 274.5,-216 280.5,-216 280.5,-216 368.5,-216 368.5,-216 374.5,-216 380.5,-222 380.5,-228 380.5,-228 380.5,-240 380.5,-240 380.5,-246 374.5,-252 368.5,-252"/>
<text text-anchor="middle" x="324.5" y="-231.5" font-family="sans" font-size="10.00" fill="#000000">Get_Negative_Seqs</text>
</g>
<!-- 7&#45;&gt;8 -->
<g id="edge13" class="edge">
<title>7&#45;&gt;8</title>
<path fill="none" stroke="#c0c0c0" stroke-width="2" d="M268.9488,-287.7476C278.0781,-278.9147 288.8104,-268.5308 298.3953,-259.2571"/>
<polygon fill="#c0c0c0" stroke="#c0c0c0" stroke-width="2" points="301.0306,-261.5775 305.7837,-252.1087 296.1631,-256.5468 301.0306,-261.5775"/>
</g>
<!-- 8&#45;&gt;3 -->
<g id="edge8" class="edge">
<title>8&#45;&gt;3</title>
<path fill="none" stroke="#c0c0c0" stroke-width="2" d="M313.6493,-215.8314C308.7977,-207.7079 302.9783,-197.9637 297.632,-189.0118"/>
<polygon fill="#c0c0c0" stroke="#c0c0c0" stroke-width="2" points="300.6292,-187.2041 292.4968,-180.4133 294.6194,-190.7933 300.6292,-187.2041"/>
</g>
<!-- 9 -->
<g id="node10" class="node">
<title>9</title>
<path fill="none" stroke="#d8cb56" stroke-width="2" d="M470.5,-326.5C470.5,-326.5 354.5,-326.5 354.5,-326.5 348.5,-326.5 342.5,-320.5 342.5,-314.5 342.5,-314.5 342.5,-302.5 342.5,-302.5 342.5,-296.5 348.5,-290.5 354.5,-290.5 354.5,-290.5 470.5,-290.5 470.5,-290.5 476.5,-290.5 482.5,-296.5 482.5,-302.5 482.5,-302.5 482.5,-314.5 482.5,-314.5 482.5,-320.5 476.5,-326.5 470.5,-326.5"/>
<text text-anchor="middle" x="412.5" y="-306" font-family="sans" font-size="10.00" fill="#000000">Get_Positive_Seqs_Intron</text>
</g>
<!-- 9&#45;&gt;4 -->
<g id="edge9" class="edge">
<title>9&#45;&gt;4</title>
<path fill="none" stroke="#c0c0c0" stroke-width="2" d="M412.5,-290.2419C412.5,-265.1025 412.5,-219.5981 412.5,-190.1029"/>
<polygon fill="#c0c0c0" stroke="#c0c0c0" stroke-width="2" points="416.0001,-190.028 412.5,-180.028 409.0001,-190.028 416.0001,-190.028"/>
</g>
<!-- 10 -->
<g id="node11" class="node">
<title>10</title>
<path fill="none" stroke="#d85656" stroke-width="2" d="M290.5,-401C290.5,-401 204.5,-401 204.5,-401 198.5,-401 192.5,-395 192.5,-389 192.5,-389 192.5,-377 192.5,-377 192.5,-371 198.5,-365 204.5,-365 204.5,-365 290.5,-365 290.5,-365 296.5,-365 302.5,-371 302.5,-377 302.5,-377 302.5,-389 302.5,-389 302.5,-395 296.5,-401 290.5,-401"/>
<text text-anchor="middle" x="247.5" y="-380.5" font-family="sans" font-size="10.00" fill="#000000">Calculate_Intersect</text>
</g>
<!-- 10&#45;&gt;5 -->
<g id="edge10" class="edge">
<title>10&#45;&gt;5</title>
<path fill="none" stroke="#c0c0c0" stroke-width="2" d="M206.1057,-364.9656C184.2033,-355.4234 156.9835,-343.5644 133.1512,-333.1814"/>
<polygon fill="#c0c0c0" stroke="#c0c0c0" stroke-width="2" points="134.4255,-329.9189 123.8599,-329.1334 131.6296,-336.3363 134.4255,-329.9189"/>
</g>
<!-- 10&#45;&gt;7 -->
<g id="edge12" class="edge">
<title>10&#45;&gt;7</title>
<path fill="none" stroke="#c0c0c0" stroke-width="2" d="M247.5,-364.9656C247.5,-357.3118 247.5,-348.1674 247.5,-339.4898"/>
<polygon fill="#c0c0c0" stroke="#c0c0c0" stroke-width="2" points="251.0001,-339.2678 247.5,-329.2679 244.0001,-339.2679 251.0001,-339.2678"/>
</g>
<!-- 10&#45;&gt;9 -->
<g id="edge14" class="edge">
<title>10&#45;&gt;9</title>
<path fill="none" stroke="#c0c0c0" stroke-width="2" d="M287.4419,-364.9656C310.1755,-354.7011 338.8463,-341.7558 362.999,-330.8505"/>
<polygon fill="#c0c0c0" stroke="#c0c0c0" stroke-width="2" points="364.6803,-333.9316 372.354,-326.6265 361.7997,-327.5518 364.6803,-333.9316"/>
</g>
<!-- 11 -->
<g id="node12" class="node">
<title>11</title>
<path fill="none" stroke="#70d856" stroke-width="2" d="M274.5,-478C274.5,-478 220.5,-478 220.5,-478 214.5,-478 208.5,-472 208.5,-466 208.5,-466 208.5,-449 208.5,-449 208.5,-443 214.5,-437 220.5,-437 220.5,-437 274.5,-437 274.5,-437 280.5,-437 286.5,-443 286.5,-449 286.5,-449 286.5,-466 286.5,-466 286.5,-472 280.5,-478 274.5,-478"/>
<text text-anchor="middle" x="247.5" y="-466" font-family="sans" font-size="10.00" fill="#000000">Score_IRS</text>
<text text-anchor="middle" x="247.5" y="-455" font-family="sans" font-size="10.00" fill="#000000">sample: ASC</text>
<text text-anchor="middle" x="247.5" y="-444" font-family="sans" font-size="10.00" fill="#000000">topn: 1000</text>
</g>
<!-- 11&#45;&gt;10 -->
<g id="edge15" class="edge">
<title>11&#45;&gt;10</title>
<path fill="none" stroke="#c0c0c0" stroke-width="2" d="M247.5,-436.7476C247.5,-428.8767 247.5,-419.7743 247.5,-411.3232"/>
<polygon fill="#c0c0c0" stroke="#c0c0c0" stroke-width="2" points="251.0001,-411.1086 247.5,-401.1087 244.0001,-411.1087 251.0001,-411.1086"/>
</g>
</g>
</svg>
